<?xml version="1.0" encoding="UTF-8" standalone="no"?><!DOCTYPE svg PUBLIC "-//W3C//DTD SVG 1.1//EN" "http://www.w3.org/Graphics/SVG/1.1/DTD/svg11.dtd"><svg width="100%" height="100%" viewBox="0 0 96 96" version="1.1" xmlns="http://www.w3.org/2000/svg" xmlns:xlink="http://www.w3.org/1999/xlink" xml:space="preserve" xmlns:serif="http://www.serif.com/" style="fill-rule:evenodd;clip-rule:evenodd;stroke-linejoin:round;stroke-miterlimit:2;"><path d="M38.016,11.968c-0.024,2.97 0.688,5.229 2.093,7.625c0.123,0.213 0.374,0.318 0.611,0.256c4.911,-1.267 9.789,-1.267 14.633,0c0.209,0.052 0.427,-0.033 0.541,-0.213c1.983,-3.122 2.894,-7.772 1.533,-11.302c-1.428,-3.706 -5.039,-6.439 -8.593,-8.085c-0.607,-0.285 -1.253,-0.28 -1.846,0.038c-4.488,2.419 -8.929,6.339 -8.972,11.681" style="fill:#fff;fill-rule:nonzero;"/><path d="M20.574,39.374c1.732,-4.593 4.389,-8.683 7.967,-12.275c0.332,-0.332 0.403,-0.849 0.171,-1.257c-4.427,-7.886 -12.968,-3.103 -17.475,1.381c-4.232,4.203 -7.392,9.342 -9.475,15.42c-0.128,0.379 0.261,0.73 0.626,0.56c1.053,-0.494 2.116,-1.021 3.193,-1.58c2.05,-1.068 4.37,-1.841 6.961,-2.325c2.614,-0.484 5.233,0.066 6.808,2.239c0.09,0.128 0.29,0.105 0.351,-0.038c0.295,-0.659 0.584,-1.371 0.873,-2.125" style="fill:#fff;fill-rule:nonzero;"/><path d="M83.603,39.307c3.492,0.731 6.415,2.083 9.594,3.72c0.982,0.508 1.286,0.237 0.911,-0.802c-2.833,-7.914 -8.531,-16.815 -16.673,-19.871c-4.531,-1.703 -7.933,-0.488 -10.201,3.635c-0.204,0.365 -0.157,0.697 0.138,0.991c4.118,4.119 7.098,8.973 8.844,14.628c0.033,0.1 0.161,0.128 0.227,0.048c1.856,-2.173 4.242,-2.956 7.16,-2.349" style="fill:#fff;fill-rule:nonzero;"/><path d="M38.695,23.678c-4.408,1.898 -8.062,4.807 -10.97,8.726c-1.134,1.527 -0.665,3.155 0.768,4.251c2.349,1.789 4.783,3.663 7.307,5.627c2.131,1.661 3.668,0.93 5.594,-0.664c1.172,-0.963 2.344,-1.85 3.521,-2.652c1.034,-0.703 1.675,-1.808 1.675,-3.061c-0.005,-3.587 -0.019,-7.131 -0.034,-10.637c-0.009,-1.822 -1.233,-3.227 -3.103,-3.008c-1.594,0.185 -3.302,0.792 -4.758,1.418" style="fill:#fff;fill-rule:nonzero;"/><path d="M54.418,22.62c-2.913,-0.902 -5.038,-0.199 -4.972,3.245c0.066,3.364 0.076,6.709 0.028,10.026c-0.019,1.144 0.418,2.064 1.305,2.752c1.651,1.286 3.279,2.51 4.878,3.682c1.437,1.053 2.842,1.048 4.208,-0.014c2.425,-1.889 4.949,-3.839 7.578,-5.846c1.437,-1.101 1.85,-2.861 0.673,-4.384c-3.549,-4.579 -8.113,-7.734 -13.698,-9.461" style="fill:#fff;fill-rule:nonzero;"/><path d="M72.985,40.944c-0.812,-2.33 -2.933,-2.856 -4.793,-1.442c-2.813,2.14 -5.352,4.099 -7.624,5.883c-0.764,0.603 -1.144,1.386 -1.144,2.339c0.01,3.697 0.01,7.483 0.005,11.359c-0.005,0.968 0.498,1.732 1.243,2.297c2.116,1.608 4.27,3.269 6.462,4.981c1.424,1.111 2.928,2.093 4.612,0.802c1.054,-0.806 1.381,-2.329 1.751,-3.539c2.306,-7.539 2.135,-15.102 -0.512,-22.68" style="fill:#fff;fill-rule:nonzero;"/><path d="M36.621,48.967c0.019,-1.428 -0.133,-2.543 -1.191,-3.364c-2.406,-1.86 -4.906,-3.809 -7.501,-5.845c-1.984,-1.556 -4.09,-1.015 -4.982,1.457c-2.819,7.8 -2.605,16.957 0.218,24.321c0.883,2.311 3.15,2.567 4.934,1.191c2.477,-1.917 4.921,-3.805 7.331,-5.67c0.769,-0.598 1.153,-1.371 1.148,-2.325c-0.009,-2.885 0.005,-6.14 0.043,-9.765" style="fill:#fff;fill-rule:nonzero;"/><path d="M46.58,70.712c-0.014,-1.015 -0.446,-1.86 -1.295,-2.533c-1.528,-1.215 -3.236,-2.524 -5.125,-3.924c-1.295,-0.963 -2.861,-1.034 -4.151,-0.043c-2.32,1.78 -4.726,3.63 -7.226,5.547c-2.771,2.13 -1.001,4.479 0.797,6.324c3.739,3.834 8.721,7.127 13.926,7.796c0.868,0.109 1.627,-0.171 2.282,-0.849c0.939,-0.973 0.806,-2.377 0.816,-3.654c0.024,-2.999 0.014,-5.888 -0.024,-8.664" style="fill:#fff;fill-rule:nonzero;"/><path d="M54.124,83.609c5.172,-1.433 9.651,-4.446 13.248,-8.641c1.375,-1.608 1.907,-3.363 -0,-4.849c-2.61,-2.035 -5.092,-3.943 -7.445,-5.722c-1.385,-1.048 -2.742,-1.091 -4.076,-0.128c-1.589,1.153 -3.292,2.439 -5.119,3.862c-0.84,0.66 -1.262,1.504 -1.258,2.534c0.005,3.35 0,6.624 -0.014,9.822c-0.014,3.074 1.874,3.895 4.664,3.122" style="fill:#fff;fill-rule:nonzero;"/><path d="M36.322,84.577c-4.911,-2.615 -8.65,-5.789 -11.216,-9.523c-0.086,-0.119 -0.266,-0.1 -0.318,0.033c-1.742,4.38 -2.187,9.954 -0.01,14.125c1.438,2.752 3.473,4.92 6.116,6.505c0.204,0.119 0.418,0.185 0.645,0.199c0.276,0.015 0.518,-0.18 0.565,-0.45l1.205,-7.051c0.086,-0.513 0.332,-0.982 0.707,-1.338l2.339,-2.268c0.072,-0.066 0.052,-0.185 -0.033,-0.232" style="fill:#fff;fill-rule:nonzero;"/><path d="M64.828,95.874c7.744,-4.641 9.461,-12.323 6.467,-20.512c-0.085,-0.227 -0.384,-0.27 -0.531,-0.075c-3.136,4.123 -6.832,7.202 -11.084,9.237c-0.099,0.048 -0.118,0.176 -0.038,0.252l2.311,2.168c0.375,0.351 0.626,0.816 0.716,1.324l1.267,7.198c0.071,0.413 0.537,0.621 0.892,0.408" style="fill:#fff;fill-rule:nonzero;"/><path d="M50.656,88.069c0.19,-0.361 -0.071,-0.793 -0.475,-0.793l-4.265,-0.033c-0.408,0 -0.674,0.432 -0.484,0.792l2.13,4.081c0.204,0.389 0.755,0.389 0.959,0.005l2.135,-4.052Z" style="fill:#fff;fill-rule:nonzero;"/><path d="M40.108,19.593c-1.404,-2.396 -2.116,-4.655 -2.092,-7.625c0.043,-5.342 4.484,-9.262 8.972,-11.681c0.593,-0.318 1.239,-0.323 1.846,-0.038c3.554,1.646 7.165,4.379 8.593,8.085c1.361,3.53 0.45,8.18 -1.533,11.302c-0.114,0.18 -0.332,0.265 -0.541,0.213c-4.844,-1.267 -9.722,-1.267 -14.633,0c-0.237,0.062 -0.488,-0.043 -0.612,-0.256" style="fill:#03888b;fill-rule:nonzero;"/><path d="M20.574,39.374c-0.289,0.754 -0.578,1.466 -0.873,2.125c-0.061,0.143 -0.261,0.166 -0.351,0.038c-1.575,-2.173 -4.194,-2.723 -6.808,-2.239c-2.591,0.484 -4.911,1.257 -6.961,2.325c-1.077,0.559 -2.14,1.086 -3.193,1.58c-0.365,0.17 -0.754,-0.181 -0.626,-0.56c2.083,-6.078 5.243,-11.217 9.475,-15.42c4.507,-4.484 13.048,-9.267 17.475,-1.381c0.232,0.408 0.161,0.925 -0.171,1.257c-3.578,3.592 -6.235,7.682 -7.967,12.275" style="fill:#03888b;fill-rule:nonzero;"/><path d="M93.197,43.027c-3.179,-1.637 -6.102,-2.989 -9.594,-3.72c-2.918,-0.607 -5.304,0.176 -7.16,2.349c-0.066,0.08 -0.194,0.052 -0.227,-0.048c-1.746,-5.655 -4.726,-10.509 -8.844,-14.628c-0.295,-0.294 -0.342,-0.626 -0.138,-0.991c2.268,-4.124 5.67,-5.338 10.201,-3.635c8.142,3.056 13.84,11.957 16.673,19.871c0.375,1.039 0.071,1.31 -0.911,0.802" style="fill:#03888b;fill-rule:nonzero;"/><path d="M38.695,23.678c1.456,-0.626 3.164,-1.233 4.758,-1.418c1.87,-0.219 3.094,1.186 3.103,3.008c0.015,3.506 0.029,7.05 0.034,10.637c-0,1.253 -0.641,2.358 -1.675,3.061c-1.177,0.802 -2.349,1.689 -3.521,2.652c-1.926,1.594 -3.463,2.325 -5.594,0.664c-2.524,-1.964 -4.958,-3.838 -7.307,-5.627c-1.433,-1.096 -1.902,-2.724 -0.768,-4.251c2.908,-3.919 6.562,-6.828 10.97,-8.726" style="fill:#03888b;fill-rule:nonzero;"/><path d="M54.418,22.62c5.585,1.727 10.149,4.882 13.698,9.461c1.177,1.523 0.764,3.283 -0.673,4.384c-2.629,2.007 -5.153,3.957 -7.578,5.846c-1.366,1.062 -2.771,1.067 -4.208,0.014c-1.599,-1.172 -3.227,-2.396 -4.878,-3.682c-0.887,-0.688 -1.324,-1.608 -1.305,-2.752c0.048,-3.317 0.038,-6.662 -0.028,-10.026c-0.066,-3.444 2.059,-4.147 4.972,-3.245" style="fill:#03888b;fill-rule:nonzero;"/><path d="M72.985,40.944c2.647,7.578 2.818,15.141 0.512,22.68c-0.37,1.21 -0.697,2.733 -1.751,3.539c-1.684,1.291 -3.188,0.309 -4.612,-0.802c-2.192,-1.712 -4.346,-3.373 -6.462,-4.981c-0.745,-0.565 -1.248,-1.329 -1.243,-2.297c0.005,-3.876 0.005,-7.662 -0.005,-11.359c0,-0.953 0.38,-1.736 1.144,-2.339c2.272,-1.784 4.811,-3.743 7.624,-5.883c1.86,-1.414 3.981,-0.888 4.793,1.442" style="fill:#03888b;fill-rule:nonzero;"/><path d="M35.43,45.604c1.058,0.82 1.21,1.935 1.191,3.363c-0.038,3.625 -0.052,6.88 -0.043,9.765c0.005,0.954 -0.379,1.727 -1.148,2.325c-2.41,1.865 -4.854,3.753 -7.331,5.67c-1.783,1.376 -4.051,1.12 -4.934,-1.191c-2.823,-7.364 -3.037,-16.521 -0.218,-24.321c0.892,-2.472 2.999,-3.013 4.982,-1.457c2.595,2.035 5.095,3.986 7.501,5.846" style="fill:#03888b;fill-rule:nonzero;"/><path d="M46.58,70.712c0.038,2.776 0.048,5.665 0.024,8.664c-0.01,1.277 0.123,2.681 -0.816,3.654c-0.655,0.678 -1.414,0.958 -2.282,0.849c-5.205,-0.669 -10.187,-3.962 -13.926,-7.796c-1.798,-1.845 -3.568,-4.194 -0.797,-6.324c2.5,-1.917 4.906,-3.767 7.226,-5.547c1.29,-0.991 2.856,-0.92 4.151,0.043c1.889,1.4 3.597,2.709 5.125,3.924c0.849,0.673 1.281,1.518 1.295,2.533" style="fill:#03888b;fill-rule:nonzero;"/><path d="M67.372,74.968c-3.597,4.195 -8.076,7.208 -13.248,8.641c-2.79,0.773 -4.678,-0.048 -4.664,-3.122c0.015,-3.198 0.019,-6.472 0.015,-9.822c-0.005,-1.03 0.417,-1.874 1.257,-2.534c1.826,-1.423 3.53,-2.709 5.119,-3.862c1.334,-0.963 2.691,-0.92 4.076,0.128c2.354,1.779 4.835,3.687 7.445,5.722c1.907,1.486 1.376,3.241 -0,4.849" style="fill:#03888b;fill-rule:nonzero;"/><path d="M36.322,84.577c0.085,0.047 0.105,0.166 0.033,0.232l-2.339,2.268c-0.375,0.356 -0.621,0.825 -0.707,1.338l-1.205,7.051c-0.047,0.27 -0.289,0.465 -0.565,0.45c-0.227,-0.014 -0.441,-0.08 -0.645,-0.199c-2.643,-1.585 -4.678,-3.753 -6.116,-6.505c-2.177,-4.171 -1.732,-9.745 0.01,-14.125c0.052,-0.133 0.232,-0.152 0.318,-0.033c2.566,3.734 6.305,6.908 11.216,9.523" style="fill:#03888b;fill-rule:nonzero;"/><path d="M71.295,75.362c2.994,8.189 1.277,15.871 -6.467,20.512c-0.355,0.213 -0.821,0.005 -0.892,-0.408l-1.267,-7.198c-0.09,-0.508 -0.341,-0.973 -0.716,-1.324l-2.311,-2.168c-0.08,-0.076 -0.061,-0.204 0.038,-0.252c4.252,-2.035 7.948,-5.114 11.084,-9.238c0.147,-0.194 0.446,-0.151 0.531,0.076" style="fill:#03888b;fill-rule:nonzero;"/><path d="M50.656,88.069l-2.135,4.052c-0.204,0.384 -0.755,0.384 -0.959,-0.005l-2.13,-4.081c-0.19,-0.36 0.076,-0.792 0.484,-0.792l4.265,0.033c0.404,0 0.665,0.432 0.475,0.793" style="fill:#03888b;fill-rule:nonzero;"/><path d="M55.491,52.523c-0.134,0.319 -0.387,0.481 -0.735,0.484c-0.303,0.002 -0.606,0 -0.909,0.001l-0.171,-0l-0,0.189c-0,1.783 -0,3.568 -0.001,5.351c0,0.822 -0.523,1.344 -1.347,1.344c-2.859,0.001 -5.718,0.001 -8.577,0c-0.812,0 -1.337,-0.526 -1.338,-1.338c-0,-1.784 0,-3.568 0,-5.352l0,-0.195c-0.353,0 -0.684,0.001 -1.016,0c-0.4,-0 -0.676,-0.169 -0.804,-0.492c-0.128,-0.321 -0.045,-0.634 0.245,-0.912c2.279,-2.184 4.558,-4.369 6.837,-6.552c0.248,-0.237 0.493,-0.236 0.745,0.005c2.156,2.066 4.312,4.132 6.467,6.198c0.141,0.135 0.287,0.266 0.422,0.407c0.239,0.248 0.317,0.54 0.182,0.862m1.02,-4.158c-0.014,-0.736 -0.123,-1.703 -0.736,-2.225c-1.826,-1.562 -3.819,-3.108 -5.978,-4.631c-1.219,-0.859 -2.434,-0.84 -3.649,0.057c-1.945,1.433 -3.791,2.828 -5.537,4.185c-0.678,0.526 -1.025,1.247 -1.029,2.154c-0.033,3.487 -0.048,7.074 -0.052,10.756c-0,1.02 0.469,1.898 1.404,2.629c1.827,1.428 3.644,2.785 5.442,4.061c1.846,1.309 3.407,-0.071 4.849,-1.148c1.457,-1.087 2.885,-2.192 4.285,-3.307c0.64,-0.508 0.968,-1.148 0.982,-1.917c0.071,-3.521 0.081,-7.06 0.019,-10.614" style="fill:#03888b;fill-rule:nonzero;"/></svg>